<?xml version="1.0" standalone="no"?>
<!DOCTYPE svg PUBLIC "-//W3C//DTD SVG 20010904//EN"
 "http://www.w3.org/TR/2001/REC-SVG-20010904/DTD/svg10.dtd">
<svg version="1.0" xmlns="http://www.w3.org/2000/svg"
 width="1200.000000pt" height="1200.000000pt" viewBox="0 0 1200.000000 1200.000000"
 preserveAspectRatio="xMidYMid meet">
<metadata>
Created by potrace 1.14, written by Peter Selinger 2001-2017
</metadata>
<g transform="translate(0.000000,1200.000000) scale(0.100000,-0.100000)"
fill="#000000" stroke="none">
<path d="M5840 10650 c0 -5 -22 -10 -50 -10 -27 0 -50 -4 -50 -10 0 -5 -13
-10 -30 -10 -16 0 -30 -4 -30 -10 0 -5 -18 -10 -40 -10 -22 0 -40 -4 -40 -10
0 -5 -9 -10 -20 -10 -11 0 -20 -4 -20 -10 0 -5 -9 -10 -20 -10 -11 0 -20 -4
-20 -10 0 -5 -9 -10 -20 -10 -11 0 -20 -4 -20 -10 0 -5 -8 -10 -18 -10 -10 0
-24 -9 -32 -20 -8 -11 -21 -20 -30 -20 -9 0 -22 -9 -30 -20 -8 -11 -20 -20
-27 -20 -7 0 -225 -211 -483 -470 l-470 -470 -775 0 c-510 0 -775 -3 -775 -10
0 -5 -18 -10 -40 -10 -22 0 -40 -4 -40 -10 0 -5 -8 -10 -18 -10 -10 0 -24 -9
-32 -20 -8 -11 -20 -20 -27 -20 -17 0 -103 -86 -103 -103 0 -7 -9 -19 -20 -27
-12 -8 -20 -26 -20 -42 0 -15 -4 -28 -10 -28 -5 0 -10 -13 -10 -30 0 -16 -4
-30 -10 -30 -7 0 -10 -265 -10 -775 l0 -775 -470 -470 c-258 -258 -470 -476
-470 -483 0 -7 -9 -19 -20 -27 -11 -8 -20 -21 -20 -30 0 -9 -9 -22 -20 -30
-11 -8 -20 -22 -20 -32 0 -10 -4 -18 -10 -18 -5 0 -10 -9 -10 -20 0 -11 -4
-20 -10 -20 -5 0 -10 -9 -10 -20 0 -11 -4 -20 -10 -20 -5 0 -10 -13 -10 -30 0
-16 -4 -30 -10 -30 -5 0 -10 -13 -10 -30 0 -16 -4 -30 -10 -30 -5 0 -10 -18
-10 -40 0 -22 -4 -40 -10 -40 -6 0 -10 -27 -10 -60 0 -33 -4 -60 -10 -60 -6 0
-10 -40 -10 -100 0 -60 4 -100 10 -100 6 0 10 -27 10 -60 0 -33 4 -60 10 -60
6 0 10 -18 10 -40 0 -22 5 -40 10 -40 6 0 10 -13 10 -30 0 -16 5 -30 10 -30 6
0 10 -13 10 -30 0 -16 5 -30 10 -30 6 0 10 -9 10 -20 0 -11 5 -20 10 -20 6 0
10 -9 10 -20 0 -11 5 -20 10 -20 6 0 10 -8 10 -18 0 -10 9 -24 20 -32 11 -8
20 -21 20 -30 0 -9 9 -22 20 -30 11 -8 20 -22 20 -32 0 -10 5 -18 10 -18 6 0
10 -9 10 -20 0 -13 -7 -20 -20 -20 -11 0 -20 -4 -20 -10 0 -5 -9 -10 -20 -10
-11 0 -20 -4 -20 -10 0 -5 -7 -10 -15 -10 -9 0 -31 -16 -50 -35 l-35 -34 0
-106 c0 -63 4 -105 10 -105 6 0 10 -33 10 -80 0 -47 4 -80 10 -80 6 0 10 -37
10 -90 0 -53 4 -90 10 -90 6 0 10 -33 10 -80 0 -47 4 -80 10 -80 6 0 10 -25
10 -55 0 -50 3 -59 35 -90 l34 -35 461 0 c387 0 464 -2 476 -14 12 -12 14
-122 14 -720 0 -464 3 -706 10 -706 6 0 10 -13 10 -30 0 -16 5 -30 10 -30 6 0
10 -9 10 -20 0 -11 5 -20 10 -20 6 0 10 -9 10 -20 0 -11 5 -20 10 -20 6 0 10
-7 10 -15 0 -19 84 -105 103 -105 7 0 19 -9 27 -20 8 -11 22 -20 32 -20 10 0
18 -4 18 -10 0 -5 14 -10 30 -10 17 0 30 -4 30 -10 0 -7 268 -10 785 -10 l785
0 470 -470 c258 -259 475 -470 481 -470 6 0 24 -13 39 -30 15 -16 35 -30 44
-30 9 0 16 -4 16 -10 0 -5 9 -10 20 -10 11 0 20 -4 20 -10 0 -5 9 -10 20 -10
11 0 20 -4 20 -10 0 -5 9 -10 20 -10 11 0 20 -4 20 -10 0 -5 9 -10 20 -10 11
0 20 -4 20 -10 0 -5 14 -10 30 -10 17 0 30 -4 30 -10 0 -5 14 -10 30 -10 17 0
30 -4 30 -10 0 -5 23 -10 50 -10 28 0 50 -4 50 -10 0 -6 63 -10 170 -10 107 0
170 4 170 10 0 6 18 10 40 10 22 0 40 5 40 10 0 6 18 10 40 10 22 0 40 5 40
10 0 6 14 10 30 10 17 0 30 5 30 10 0 6 9 10 20 10 11 0 20 5 20 10 0 6 9 10
20 10 11 0 20 5 20 10 0 6 9 10 20 10 11 0 20 5 20 10 0 6 8 10 18 10 10 0 24
9 32 20 8 11 21 20 28 20 8 0 27 14 42 30 15 17 33 30 39 30 6 0 119 108 251
240 132 132 247 240 255 240 10 0 15 -10 15 -30 0 -16 5 -30 10 -30 6 0 10 -9
10 -20 0 -11 5 -20 10 -20 6 0 10 -13 10 -30 0 -16 5 -30 10 -30 6 0 10 -13
10 -30 0 -16 5 -30 10 -30 6 0 10 -9 10 -20 0 -11 5 -20 10 -20 6 0 10 -7 10
-16 0 -23 25 -44 54 -44 14 0 26 -4 26 -10 0 -5 18 -10 40 -10 22 0 40 5 40
10 0 6 14 10 30 10 17 0 30 5 30 10 0 6 14 10 30 10 17 0 30 5 30 10 0 6 18
10 40 10 22 0 40 5 40 10 0 6 14 10 30 10 17 0 30 5 30 10 0 6 14 10 30 10 17
0 30 5 30 10 0 6 18 10 40 10 22 0 40 5 40 10 0 6 14 10 30 10 17 0 30 5 30
10 0 6 14 10 30 10 17 0 30 5 30 10 0 6 14 10 30 10 17 0 30 5 30 10 0 6 18
10 40 10 22 0 40 5 40 10 0 6 14 10 30 10 17 0 30 5 30 10 0 6 14 10 30 10 17
0 30 5 30 10 0 6 18 10 40 10 22 0 40 5 40 10 0 6 14 10 30 10 17 0 30 5 30
10 0 6 14 10 30 10 17 0 30 5 30 10 0 6 14 10 30 10 17 0 30 5 30 10 0 6 18
10 40 10 22 0 40 5 40 10 0 6 14 10 30 10 17 0 30 5 30 10 0 6 14 10 30 10 17
0 30 5 30 10 0 6 18 10 40 10 22 0 40 5 40 10 0 6 14 10 30 10 17 0 30 5 30
10 0 6 14 10 30 10 17 0 30 5 30 10 0 6 14 10 30 10 17 0 30 5 30 10 0 6 18
10 40 10 22 0 40 5 40 10 0 6 14 10 30 10 17 0 30 5 30 10 0 6 14 10 30 10 17
0 30 5 30 10 0 6 18 10 40 10 22 0 40 5 40 10 0 6 14 10 30 10 17 0 30 5 30
10 0 6 14 10 30 10 17 0 30 5 30 10 0 6 14 10 30 10 17 0 30 5 30 10 0 6 18
10 40 10 22 0 40 5 40 10 0 6 14 10 30 10 17 0 30 5 30 10 0 6 14 10 30 10 17
0 30 5 30 10 0 6 18 10 40 10 22 0 40 5 40 10 0 6 14 10 30 10 17 0 30 5 30
10 0 6 14 10 30 10 17 0 30 5 30 10 0 6 14 10 30 10 17 0 30 5 30 10 0 6 18
10 40 10 22 0 40 5 40 10 0 6 14 10 30 10 17 0 30 5 30 10 0 6 14 10 30 10 17
0 30 5 30 10 0 6 18 10 40 10 22 0 40 5 40 10 0 6 8 10 18 10 10 0 24 9 32 20
8 11 22 20 32 20 11 0 18 7 18 18 0 10 9 24 20 32 17 12 20 26 20 92 0 45 -4
78 -10 78 -6 0 -10 47 -10 120 0 73 -4 120 -10 120 -6 0 -10 50 -10 130 0 80
-4 130 -10 130 -6 0 -10 27 -10 60 0 33 -4 60 -10 60 -5 0 -10 8 -10 18 0 10
-9 24 -20 32 -11 8 -20 22 -20 32 0 10 -4 18 -10 18 -5 0 -10 9 -10 20 0 11
-4 20 -10 20 -5 0 -10 8 -10 18 0 10 -9 24 -20 32 -11 8 -20 22 -20 32 0 10
-4 18 -10 18 -5 0 -10 9 -10 20 0 11 -4 20 -10 20 -5 0 -10 8 -10 18 0 10 -9
24 -20 32 -11 8 -20 22 -20 32 0 10 -4 18 -10 18 -5 0 -10 9 -10 20 0 11 -4
20 -10 20 -5 0 -10 8 -10 18 0 10 -9 24 -20 32 -11 8 -20 22 -20 32 0 10 -4
18 -10 18 -5 0 -10 7 -10 16 0 20 -24 44 -44 44 -9 0 -16 5 -16 10 0 6 -22 10
-50 10 -27 0 -50 -4 -50 -10 0 -5 -13 -10 -30 -10 -16 0 -30 -4 -30 -10 0 -5
-18 -10 -40 -10 -22 0 -40 -4 -40 -10 0 -5 -13 -10 -30 -10 -16 0 -30 -4 -30
-10 0 -5 -13 -10 -30 -10 l-30 0 0 215 0 215 460 460 c253 253 460 465 460
471 0 6 14 24 30 39 17 15 30 35 30 44 0 9 5 16 10 16 6 0 10 9 10 20 0 11 5
20 10 20 6 0 10 9 10 20 0 11 5 20 10 20 6 0 10 9 10 20 0 11 5 20 10 20 6 0
10 9 10 20 0 11 5 20 10 20 6 0 10 14 10 30 0 17 5 30 10 30 6 0 10 14 10 30
0 17 5 30 10 30 6 0 10 18 10 40 0 22 5 40 10 40 6 0 10 37 10 90 0 53 4 90
10 90 6 0 10 9 10 20 0 11 -4 20 -10 20 -6 0 -10 37 -10 90 0 53 -4 90 -10 90
-5 0 -10 18 -10 40 0 22 -4 40 -10 40 -5 0 -10 14 -10 30 0 17 -4 30 -10 30
-5 0 -10 14 -10 30 0 17 -4 30 -10 30 -5 0 -10 9 -10 20 0 11 -4 20 -10 20 -5
0 -10 9 -10 20 0 11 -4 20 -10 20 -5 0 -10 9 -10 20 0 11 -4 20 -10 20 -5 0
-10 8 -10 18 0 10 -9 24 -20 32 -11 8 -20 21 -20 28 0 8 -13 27 -30 42 -16 15
-30 33 -30 39 0 6 -180 191 -400 411 -220 220 -400 402 -400 405 0 3 18 5 40
5 22 0 40 -4 40 -10 0 -6 27 -10 60 -10 33 0 60 -4 60 -10 0 -6 27 -10 60 -10
33 0 60 -4 60 -10 0 -5 9 -10 20 -10 11 0 20 5 20 10 0 6 9 10 20 10 11 0 20
5 20 10 0 6 9 10 20 10 11 0 20 5 20 10 0 6 8 10 18 10 10 0 24 9 32 20 8 11
20 20 28 20 18 0 42 25 42 44 0 9 5 16 10 16 6 0 10 33 10 80 0 47 4 80 10 80
6 0 10 30 10 70 0 40 4 70 10 70 6 0 10 33 10 80 0 47 4 80 10 80 6 0 10 27
10 60 0 53 -2 60 -20 60 -11 0 -20 5 -20 10 0 6 -18 10 -40 10 -22 0 -40 5
-40 10 0 6 -27 10 -60 10 -33 0 -60 4 -60 10 0 6 -27 10 -60 10 -33 0 -60 4
-60 10 0 6 -27 10 -60 10 -33 0 -60 4 -60 10 0 6 -27 10 -60 10 -33 0 -60 4
-60 10 0 6 -25 10 -56 10 -35 0 -61 5 -70 14 -12 12 -14 81 -14 410 0 257 -4
396 -10 396 -5 0 -10 18 -10 40 0 22 -4 40 -10 40 -5 0 -10 9 -10 20 0 11 -4
20 -10 20 -5 0 -10 8 -10 18 0 10 -9 24 -20 32 -11 8 -20 20 -20 28 0 16 -45
62 -61 62 -6 0 -24 14 -39 30 -17 18 -38 30 -54 30 -14 0 -26 5 -26 10 0 6
-13 10 -30 10 -16 0 -30 5 -30 10 0 7 -265 10 -775 10 l-775 0 -450 450 c-247
248 -455 450 -461 450 -6 0 -28 18 -49 40 -21 22 -46 40 -54 40 -9 0 -16 5
-16 10 0 6 -8 10 -18 10 -10 0 -24 9 -32 20 -8 11 -22 20 -32 20 -10 0 -18 5
-18 10 0 6 -9 10 -20 10 -11 0 -20 5 -20 10 0 6 -13 10 -30 10 -16 0 -30 5
-30 10 0 6 -13 10 -30 10 -16 0 -30 5 -30 10 0 6 -13 10 -30 10 -16 0 -30 5
-30 10 0 6 -27 10 -60 10 -33 0 -60 4 -60 10 0 6 -53 10 -140 10 -87 0 -140
-4 -140 -10z m323 -3062 c4 -10 8 -9 17 2 9 11 13 12 17 3 2 -7 13 -13 24 -13
18 0 19 -8 19 -110 0 -67 4 -110 10 -110 6 0 10 -9 10 -20 0 -16 7 -20 30 -20
17 0 30 -4 30 -10 0 -5 9 -10 20 -10 11 0 20 -4 20 -10 0 -5 14 -10 30 -10 17
0 30 -4 30 -10 0 -5 9 -10 20 -10 11 0 20 -4 20 -10 0 -5 14 -10 30 -10 17 0
30 -4 30 -10 0 -5 9 -10 20 -10 11 0 20 -4 20 -10 0 -5 8 -10 18 -10 10 0 24
-9 32 -20 8 -11 22 -20 32 -20 10 0 18 -4 18 -10 0 -5 7 -10 15 -10 21 0 172
-153 157 -158 -7 -2 -12 -11 -12 -21 0 -9 -9 -23 -20 -31 -11 -8 -20 -26 -20
-40 0 -14 -9 -32 -20 -40 -11 -8 -20 -22 -20 -32 0 -10 -4 -18 -10 -18 -5 0
-10 -9 -10 -20 0 -11 -4 -20 -10 -20 -5 0 -10 -8 -10 -18 0 -10 -9 -24 -20
-32 -11 -8 -20 -22 -20 -32 0 -10 -4 -18 -10 -18 -5 0 -10 -9 -10 -20 0 -11
-4 -20 -10 -20 -5 0 -10 -7 -10 -15 0 -24 -46 -65 -72 -65 -13 0 -30 9 -38 20
-8 11 -21 20 -28 20 -7 0 -31 18 -52 40 -21 22 -45 40 -52 40 -7 0 -20 9 -28
20 -8 11 -22 20 -32 20 -10 0 -18 5 -18 10 0 6 -9 10 -20 10 -11 0 -20 5 -20
10 0 6 -13 10 -30 10 -16 0 -30 5 -30 10 0 6 -9 10 -20 10 -11 0 -20 5 -20 10
0 6 -22 10 -50 10 -27 0 -50 5 -50 10 0 6 -22 10 -50 10 -27 0 -50 -4 -50 -10
0 -5 -22 -10 -50 -10 -27 0 -50 -4 -50 -10 0 -5 -8 -10 -18 -10 -10 0 -24 -9
-32 -20 -8 -11 -20 -20 -28 -20 -18 0 -42 -25 -42 -44 0 -9 -4 -16 -10 -16 -6
0 -10 -30 -10 -70 0 -40 4 -70 10 -70 6 0 10 -9 10 -20 0 -12 7 -20 16 -20 9
0 29 -13 44 -30 15 -16 35 -30 44 -30 9 0 16 -4 16 -10 0 -5 14 -10 30 -10 17
0 30 -4 30 -10 0 -5 9 -10 20 -10 11 0 20 -4 20 -10 0 -5 9 -10 20 -10 11 0
20 -4 20 -10 0 -5 14 -10 30 -10 17 0 30 -4 30 -10 0 -5 9 -10 20 -10 11 0 20
-4 20 -10 0 -5 14 -10 30 -10 17 0 30 -4 30 -10 0 -5 9 -10 20 -10 11 0 20 -4
20 -10 0 -5 14 -10 30 -10 17 0 30 -4 30 -10 0 -5 9 -10 20 -10 11 0 20 -4 20
-10 0 -5 13 -10 28 -10 16 0 34 -8 42 -20 8 -11 21 -20 30 -20 9 0 22 -9 30
-20 8 -11 26 -20 40 -20 14 0 32 -9 40 -20 8 -11 21 -20 30 -20 9 0 22 -9 30
-20 8 -11 20 -20 27 -20 19 0 123 -106 123 -125 0 -8 9 -15 20 -15 13 0 20 -7
20 -20 0 -11 5 -20 10 -20 6 0 10 -9 10 -20 0 -11 5 -20 10 -20 6 0 10 -9 10
-20 0 -11 5 -20 10 -20 6 0 10 -9 10 -20 0 -11 5 -20 10 -20 6 0 10 -13 10
-30 0 -16 5 -30 10 -30 6 0 10 -18 10 -40 0 -22 5 -40 10 -40 6 0 10 -37 10
-90 0 -53 -4 -90 -10 -90 -5 0 -10 -18 -10 -40 0 -22 -4 -40 -10 -40 -5 0 -10
-13 -10 -30 0 -16 -4 -30 -10 -30 -5 0 -10 -13 -10 -30 0 -16 -4 -30 -10 -30
-5 0 -10 -9 -10 -20 0 -11 -4 -20 -10 -20 -5 0 -10 -9 -10 -20 0 -11 -4 -20
-10 -20 -5 0 -10 -8 -10 -18 0 -10 -9 -24 -20 -32 -11 -8 -20 -20 -20 -27 0
-17 -146 -163 -163 -163 -7 0 -19 -9 -27 -20 -8 -11 -22 -20 -32 -20 -10 0
-18 -4 -18 -10 0 -5 -9 -10 -20 -10 -11 0 -20 -4 -20 -10 0 -5 -9 -10 -20 -10
-11 0 -20 -4 -20 -10 0 -5 -9 -10 -20 -10 -11 0 -20 -4 -20 -10 0 -5 -13 -10
-30 -10 -16 0 -30 -4 -30 -10 0 -5 -9 -10 -20 -10 -13 0 -20 -7 -20 -20 0 -11
-4 -20 -10 -20 -6 0 -10 -43 -10 -110 0 -103 -1 -110 -20 -110 -11 0 -20 -4
-20 -10 0 -6 -78 -10 -215 -10 -216 0 -216 0 -240 25 -23 22 -25 32 -25 120 0
57 -4 95 -10 95 -5 0 -10 9 -10 20 0 13 -7 20 -20 20 -11 0 -20 5 -20 10 0 6
-18 10 -40 10 -22 0 -40 5 -40 10 0 6 -13 10 -30 10 -16 0 -30 5 -30 10 0 6
-9 10 -20 10 -11 0 -20 5 -20 10 0 6 -13 10 -30 10 -16 0 -30 5 -30 10 0 6 -9
10 -20 10 -11 0 -20 5 -20 10 0 6 -8 10 -18 10 -10 0 -24 9 -32 20 -8 11 -21
20 -28 20 -8 0 -27 14 -42 30 -15 17 -33 30 -40 30 -7 0 -25 14 -40 30 -15 17
-33 30 -39 30 -16 0 -61 46 -61 62 0 8 -9 20 -20 28 -12 8 -20 26 -20 42 0 21
5 28 20 28 12 0 20 7 20 16 0 9 14 29 30 44 17 15 30 34 30 42 0 7 9 20 20 28
11 8 20 20 20 28 0 7 23 35 50 62 28 27 50 54 50 60 0 14 86 100 100 100 6 0
38 -27 70 -60 32 -33 65 -60 72 -60 8 0 20 -9 28 -20 8 -11 22 -20 32 -20 10
0 18 -4 18 -10 0 -5 9 -10 20 -10 11 0 20 -4 20 -10 0 -5 8 -10 18 -10 10 0
24 -9 32 -20 8 -12 26 -20 42 -20 15 0 28 -4 28 -10 0 -5 14 -10 30 -10 17 0
30 -4 30 -10 0 -5 23 -10 50 -10 28 0 50 -4 50 -10 0 -15 97 -12 104 3 5 10 7
10 12 0 7 -15 44 -17 44 -3 0 6 9 10 20 10 11 0 20 5 20 10 0 6 11 10 25 10
34 0 95 61 95 95 0 14 5 25 10 25 6 0 10 23 10 50 0 28 -4 50 -10 50 -5 0 -10
7 -10 15 0 19 -44 65 -62 65 -8 0 -20 9 -28 20 -8 11 -22 20 -32 20 -10 0 -18
5 -18 10 0 6 -9 10 -20 10 -11 0 -20 5 -20 10 0 6 -9 10 -20 10 -11 0 -20 5
-20 10 0 6 -13 10 -30 10 -16 0 -30 5 -30 10 0 6 -9 10 -20 10 -11 0 -20 5
-20 10 0 6 -9 10 -20 10 -11 0 -20 5 -20 10 0 6 -13 10 -30 10 -16 0 -30 5
-30 10 0 6 -9 10 -20 10 -11 0 -20 5 -20 10 0 6 -13 10 -30 10 -16 0 -30 5
-30 10 0 6 -9 10 -20 10 -11 0 -20 5 -20 10 0 6 -9 10 -20 10 -11 0 -20 5 -20
10 0 6 -9 10 -20 10 -11 0 -20 5 -20 10 0 6 -9 10 -20 10 -11 0 -20 5 -20 10
0 6 -9 10 -20 10 -11 0 -20 5 -20 10 0 6 -7 10 -16 10 -8 0 -23 7 -31 16 -14
13 -14 17 -2 24 7 5 10 13 5 17 -5 4 -11 2 -13 -4 -8 -22 -34 -14 -63 17 -15
17 -33 30 -39 30 -16 0 -121 107 -121 123 0 7 -9 19 -20 27 -11 8 -20 21 -20
30 0 9 -9 22 -20 30 -12 8 -20 26 -20 42 0 15 -4 28 -10 28 -5 0 -10 9 -10 20
0 11 -4 20 -10 20 -5 0 -10 23 -10 50 0 28 -4 50 -10 50 -6 0 -10 43 -10 110
0 67 4 110 10 110 6 0 10 18 10 40 0 22 5 40 10 40 6 0 10 14 10 30 0 17 5 30
10 30 6 0 10 9 10 20 0 11 5 20 10 20 6 0 10 9 10 20 0 11 5 20 10 20 6 0 10
7 10 16 0 8 23 37 50 64 28 27 50 54 50 60 0 6 6 18 14 26 8 8 20 14 26 14 6
0 33 23 60 50 31 32 57 50 72 50 13 0 30 9 38 20 8 11 22 20 32 20 10 0 18 5
18 10 0 6 14 10 30 10 17 0 30 5 30 10 0 6 9 10 20 10 11 0 20 5 20 10 0 6 7
10 16 10 36 0 44 25 44 140 0 115 8 140 44 140 9 0 16 5 16 10 0 16 377 13
383 -2z"/>
</g>
</svg>
